<svg width="200" height="86" viewBox="0 0 200 86" xmlns="http://www.w3.org/2000/svg"><title>82DF5F26-49F1-46B2-A636-383D6FE36570</title><path d="M113.569 56.658c0 2.286-.378 4.436-1.132 6.442-.75 2.021-1.8 3.792-3.147 5.329-1.347 1.54-2.996 2.76-4.936 3.67-1.938.903-4.094 1.354-6.478 1.354-1.302 0-2.53-.14-3.691-.41l18.008-51.126c.084.202.168.404.244.613.754 2.016 1.132 4.166 1.132 6.452v27.676zm-29.675 7.45a16.34 16.34 0 0 1-.396-1.008c-.71-2.006-1.072-4.156-1.072-6.442V28.982c0-2.286.361-4.436 1.072-6.452.712-2.009 1.743-3.782 3.086-5.319a15.04 15.04 0 0 1 4.872-3.667c1.905-.906 4.043-1.361 6.42-1.361a16.1 16.1 0 0 1 4.127.513L83.894 64.108zm35.325-55.476c-2.579-2.681-5.67-4.79-9.276-6.324C106.339.768 102.317 0 97.876 0c-4.435 0-8.436.766-12.005 2.307-3.566 1.534-6.613 3.643-9.15 6.324-2.532 2.684-4.497 5.78-5.883 9.29-1.388 3.506-2.078 7.194-2.078 11.06v27.676c0 3.945.69 7.652 2.078 11.123A28.916 28.916 0 0 0 76.72 77c2.538 2.684 5.585 4.793 9.151 6.331 3.569 1.539 7.57 2.31 12.005 2.31 4.441 0 8.463-.771 12.067-2.31 3.605-1.538 6.697-3.647 9.276-6.332a28.373 28.373 0 0 0 5.936-9.219c1.386-3.471 2.08-7.178 2.08-11.123V28.982c0-3.866-.694-7.554-2.08-11.06a28.32 28.32 0 0 0-5.936-9.29zM43.845 47.13V22.654H30.374V47.13H13.98V2.028H.514v57.11h29.86V83.61h13.47V59.138h11.243V47.13h-9.658zm146.2 0h-1.583V22.654h-13.466V47.13h-16.397V2.028h-13.467v57.11h29.864V83.61h13.466V59.138h11.243V47.13z" fill="#5532ff" fill-rule="evenodd"/></svg>